<svg id="Layer_1" data-name="Layer 1" xmlns="http://www.w3.org/2000/svg" xmlns:xlink="http://www.w3.org/1999/xlink" viewBox="0 0 339 175"><defs><style>.cls-1,.cls-2,.cls-3,.cls-4,.cls-5,.cls-6,.cls-7{stroke:#000;stroke-linecap:round;stroke-linejoin:round;stroke-width:50px;}.cls-1{fill:url(#linear-gradient);}.cls-2{fill:url(#linear-gradient-2);}.cls-3{fill:url(#linear-gradient-3);}.cls-4{fill:url(#linear-gradient-4);}.cls-5{fill:url(#linear-gradient-5);}.cls-6{fill:url(#linear-gradient-6);}.cls-7{fill:url(#linear-gradient-7);}.cls-8{fill:url(#linear-gradient-8);}.cls-9{fill:url(#linear-gradient-9);}.cls-10{fill:url(#linear-gradient-10);}.cls-11{fill:url(#linear-gradient-11);}.cls-12{fill:url(#linear-gradient-12);}.cls-13{fill:url(#linear-gradient-13);}.cls-14{fill:url(#linear-gradient-14);}</style><linearGradient id="linear-gradient" x1="355" y1="559.44" x2="393.08" y2="559.44" gradientUnits="userSpaceOnUse"><stop offset="0" stop-color="#00716c"/><stop offset="1" stop-color="#36a277"/></linearGradient><linearGradient id="linear-gradient-2" x1="400.07" y1="553.24" x2="441.08" y2="553.24" xlink:href="#linear-gradient"/><linearGradient id="linear-gradient-3" x1="450.01" y1="575.32" x2="489.72" y2="575.32" xlink:href="#linear-gradient"/><linearGradient id="linear-gradient-4" x1="497.02" y1="564.15" x2="537.14" y2="564.15" xlink:href="#linear-gradient"/><linearGradient id="linear-gradient-5" x1="546.47" y1="548.65" x2="565.23" y2="548.65" xlink:href="#linear-gradient"/><linearGradient id="linear-gradient-6" x1="564.42" y1="559.5" x2="603.97" y2="559.5" xlink:href="#linear-gradient"/><linearGradient id="linear-gradient-7" x1="605.92" y1="559.44" x2="644" y2="559.44" xlink:href="#linear-gradient"/><linearGradient id="linear-gradient-8" x1="352" y1="557.44" x2="390.08" y2="557.44" xlink:href="#linear-gradient"/><linearGradient id="linear-gradient-9" x1="397.07" y1="551.24" x2="441" y2="551.24" xlink:href="#linear-gradient"/><linearGradient id="linear-gradient-10" x1="447.01" y1="573.32" x2="486.72" y2="573.32" xlink:href="#linear-gradient"/><linearGradient id="linear-gradient-11" x1="494.02" y1="562.15" x2="534.14" y2="562.15" xlink:href="#linear-gradient"/><linearGradient id="linear-gradient-12" x1="543.47" y1="546.65" x2="562.23" y2="546.65" xlink:href="#linear-gradient"/><linearGradient id="linear-gradient-13" x1="561.42" y1="557.5" x2="600.97" y2="557.5" xlink:href="#linear-gradient"/><linearGradient id="linear-gradient-14" x1="602.92" y1="557.44" x2="641" y2="557.44" xlink:href="#linear-gradient"/></defs><title>logo2</title><path class="cls-1" d="M355,551.45,389.92,528l3.16,15.63-25.49,15.82,25.49,15.81-3.16,15.63L355,567.41Z" transform="translate(-330 -472)"/><path class="cls-2" d="M418.91,582.74a11.69,11.69,0,0,0,4.42-.71,7,7,0,0,0,2.8-1.93,6.92,6.92,0,0,0,1.47-2.91,16,16,0,0,0,.4-3.74,10.56,10.56,0,0,0-2.6-7.3q-2.59-2.91-8.93-6.26a58.89,58.89,0,0,1-5.52-3.55,22.38,22.38,0,0,1-4.95-5,25.62,25.62,0,0,1-3.58-7.36A34.9,34.9,0,0,1,401,533.42a39.67,39.67,0,0,1,1.46-11.17,25.7,25.7,0,0,1,4.14-8.46,18.3,18.3,0,0,1,6.5-5.36,19.27,19.27,0,0,1,8.61-1.87,23,23,0,0,1,9.82,1.93,29.45,29.45,0,0,1,6.83,4.26l-3.66,15.89a29.57,29.57,0,0,0-5.24-3.42,15,15,0,0,0-6.94-1.49q-4.55,0-6.54,2c-1.32,1.34-2,3.38-2,6.14a10.49,10.49,0,0,0,.73,4.13,9.82,9.82,0,0,0,2.08,3,16.81,16.81,0,0,0,3.08,2.46q1.74,1.1,3.86,2.26a72,72,0,0,1,7.63,5.1,23.13,23.13,0,0,1,5.4,5.87A24.88,24.88,0,0,1,440,562.6a49.18,49.18,0,0,1,1.06,11q0,12.52-5.53,19.43t-16.64,6.91a29.54,29.54,0,0,1-6.74-.71,30.17,30.17,0,0,1-5.32-1.75,24,24,0,0,1-4-2.19,27.76,27.76,0,0,1-2.8-2.2l3.57-16a26.59,26.59,0,0,0,6.21,3.94A21.19,21.19,0,0,0,418.91,582.74Z" transform="translate(-330 -472)"/><path class="cls-3" d="M489.72,564.15a77.68,77.68,0,0,1-1.22,14.33,41.56,41.56,0,0,1-3.58,11.11,20.08,20.08,0,0,1-5.84,7.23,13.18,13.18,0,0,1-8,2.58,14.19,14.19,0,0,1-4.71-.77,17.55,17.55,0,0,1-4.22-2.2V622H450V532.51a31.86,31.86,0,0,1,3.73-1.48,40.9,40.9,0,0,1,4.43-1.23q2.31-.51,4.71-.84a35.07,35.07,0,0,1,4.58-.32,17.75,17.75,0,0,1,9.42,2.52,21,21,0,0,1,7,7.1,36.53,36.53,0,0,1,4.34,11.17A66.42,66.42,0,0,1,489.72,564.15Zm-12.35.52q0-8.91-2.52-14.27T467.38,545a21.53,21.53,0,0,0-3,.19,17.1,17.1,0,0,0-2.27.45v34.74a9,9,0,0,0,3,1.94,9.5,9.5,0,0,0,3.69.77Q477.37,583.13,477.37,564.67Z" transform="translate(-330 -472)"/><path class="cls-4" d="M497,564.67a63.53,63.53,0,0,1,1.75-15.82,39.6,39.6,0,0,1,4.59-11.3,21.13,21.13,0,0,1,6.53-6.85,14.12,14.12,0,0,1,7.6-2.32q9.09,0,14.37,8.84t5.28,26c0,1.11,0,2.34-.08,3.68s-.11,2.51-.17,3.55H509.45q.41,5.94,3.49,9.42a10.48,10.48,0,0,0,8.28,3.49,22.38,22.38,0,0,0,6.54-1A18.26,18.26,0,0,0,533,580l1.62,15.63a14.35,14.35,0,0,1-2.6,1.55,25.21,25.21,0,0,1-3.61,1.35,37.85,37.85,0,0,1-4.27,1,26.77,26.77,0,0,1-4.54.39,18.33,18.33,0,0,1-10-2.71,21.85,21.85,0,0,1-7.07-7.43,36.36,36.36,0,0,1-4.14-11.17A68.78,68.78,0,0,1,497,564.67Zm28.42-7.37a31.08,31.08,0,0,0-.52-4.77,15.16,15.16,0,0,0-1.39-4.14,9.3,9.3,0,0,0-2.35-3,5.43,5.43,0,0,0-3.53-1.16,5.63,5.63,0,0,0-3.49,1.1,8.66,8.66,0,0,0-2.44,2.91,16,16,0,0,0-1.5,4.19,39.63,39.63,0,0,0-.77,4.84Z" transform="translate(-330 -472)"/><path class="cls-5" d="M563.53,599.4a19.86,19.86,0,0,1-8.57-1.81,12.94,12.94,0,0,1-5.2-4.71,19.42,19.42,0,0,1-2.59-7.36,61,61,0,0,1-.7-9.75V501l12.1-3.1v74a40.52,40.52,0,0,0,.25,4.65,10.81,10.81,0,0,0,.93,3.48,6,6,0,0,0,2,2.33,7.64,7.64,0,0,0,3.49,1.16Z" transform="translate(-330 -472)"/><path class="cls-6" d="M576.84,622H564.42l27.29-125H604Z" transform="translate(-330 -472)"/><path class="cls-7" d="M644,567.41l-34.92,23.47-3.16-15.63,25.49-15.81-25.49-15.82L609.08,528,644,551.45Z" transform="translate(-330 -472)"/><path class="cls-8" d="M352,549.45,386.92,526l3.16,15.63-25.49,15.82,25.49,15.81-3.16,15.63L352,565.41Z" transform="translate(-330 -472)"/><path class="cls-9" d="M417.25,580.74A13.37,13.37,0,0,0,422,580a7.6,7.6,0,0,0,3-1.93,6.66,6.66,0,0,0,1.57-2.91,15,15,0,0,0,.43-3.74,10.12,10.12,0,0,0-2.78-7.3q-2.79-2.91-9.57-6.26a65.24,65.24,0,0,1-5.92-3.55,23.14,23.14,0,0,1-5.3-5,25.17,25.17,0,0,1-3.83-7.36,32.61,32.61,0,0,1-1.48-10.52,36.85,36.85,0,0,1,1.57-11.17,24.82,24.82,0,0,1,4.43-8.46,19.39,19.39,0,0,1,7-5.36,21.9,21.9,0,0,1,9.23-1.87,26.21,26.21,0,0,1,10.52,1.93,31.67,31.67,0,0,1,7.31,4.26l-3.92,15.89a31.77,31.77,0,0,0-5.61-3.42,17,17,0,0,0-7.44-1.49c-3.24,0-5.58.67-7,2s-2.13,3.38-2.13,6.14a9.79,9.79,0,0,0,.78,4.13,10,10,0,0,0,2.22,3,17.91,17.91,0,0,0,3.31,2.46q1.86,1.1,4.13,2.26a78.33,78.33,0,0,1,8.18,5.1,23.84,23.84,0,0,1,5.78,5.87,24.25,24.25,0,0,1,3.44,7.88,46,46,0,0,1,1.13,11q0,12.52-5.92,19.43t-17.83,6.91a33.12,33.12,0,0,1-12.92-2.46,26.31,26.31,0,0,1-4.26-2.19,30.19,30.19,0,0,1-3-2.2l3.82-16a28.78,28.78,0,0,0,6.66,3.94A24.07,24.07,0,0,0,417.25,580.74Z" transform="translate(-330 -472)"/><path class="cls-10" d="M486.72,562.15a77.68,77.68,0,0,1-1.22,14.33,41.56,41.56,0,0,1-3.58,11.11,20.08,20.08,0,0,1-5.84,7.23,13.18,13.18,0,0,1-8,2.58,14.19,14.19,0,0,1-4.71-.77,17.55,17.55,0,0,1-4.22-2.2V620H447V530.51a31.86,31.86,0,0,1,3.73-1.48,40.9,40.9,0,0,1,4.43-1.23q2.31-.51,4.71-.84a35.07,35.07,0,0,1,4.58-.32,17.75,17.75,0,0,1,9.42,2.52,21,21,0,0,1,7,7.1,36.53,36.53,0,0,1,4.34,11.17A66.42,66.42,0,0,1,486.72,562.15Zm-12.35.52q0-8.91-2.52-14.27T464.38,543a21.53,21.53,0,0,0-3,.19,17.1,17.1,0,0,0-2.27.45v34.74a9,9,0,0,0,3,1.94,9.5,9.5,0,0,0,3.69.77Q474.37,581.13,474.37,562.67Z" transform="translate(-330 -472)"/><path class="cls-11" d="M494,562.67a63.53,63.53,0,0,1,1.75-15.82,39.6,39.6,0,0,1,4.59-11.3,21.13,21.13,0,0,1,6.53-6.85,14.12,14.12,0,0,1,7.6-2.32q9.09,0,14.37,8.84t5.28,26c0,1.11,0,2.34-.08,3.68s-.11,2.51-.17,3.55H506.45q.41,5.94,3.49,9.42a10.48,10.48,0,0,0,8.28,3.49,22.38,22.38,0,0,0,6.54-1A18.26,18.26,0,0,0,530,578l1.62,15.63a14.35,14.35,0,0,1-2.6,1.55,25.21,25.21,0,0,1-3.61,1.35,37.85,37.85,0,0,1-4.27,1,26.77,26.77,0,0,1-4.54.39,18.33,18.33,0,0,1-10-2.71,21.85,21.85,0,0,1-7.07-7.43,36.36,36.36,0,0,1-4.14-11.17A68.78,68.78,0,0,1,494,562.67Zm28.42-7.37a31.08,31.08,0,0,0-.52-4.77,15.16,15.16,0,0,0-1.39-4.14,9.3,9.3,0,0,0-2.35-3,5.43,5.43,0,0,0-3.53-1.16,5.63,5.63,0,0,0-3.49,1.1,8.66,8.66,0,0,0-2.44,2.91,16,16,0,0,0-1.5,4.19,39.63,39.63,0,0,0-.77,4.84Z" transform="translate(-330 -472)"/><path class="cls-12" d="M560.53,597.4a19.86,19.86,0,0,1-8.57-1.81,12.94,12.94,0,0,1-5.2-4.71,19.42,19.42,0,0,1-2.59-7.36,61,61,0,0,1-.7-9.75V499l12.1-3.1v74a40.52,40.52,0,0,0,.25,4.65,10.81,10.81,0,0,0,.93,3.48,6,6,0,0,0,2,2.33,7.64,7.64,0,0,0,3.49,1.16Z" transform="translate(-330 -472)"/><path class="cls-13" d="M573.84,620H561.42l27.29-125H601Z" transform="translate(-330 -472)"/><path class="cls-14" d="M641,565.41l-34.92,23.47-3.16-15.63,25.49-15.81-25.49-15.82L606.08,526,641,549.45Z" transform="translate(-330 -472)"/></svg>