<svg id="Layer_1" data-name="Layer 1" xmlns="http://www.w3.org/2000/svg" xmlns:xlink="http://www.w3.org/1999/xlink" viewBox="0 0 579.87 296.13"><defs><style>.cls-1{fill:url(#linear-gradient);}.cls-2{fill:none;stroke:#000;stroke-miterlimit:10;stroke-width:50px;}.cls-3{fill:url(#linear-gradient-2);}.cls-4{fill:url(#linear-gradient-3);}.cls-5{fill:url(#linear-gradient-4);}.cls-6{fill:url(#linear-gradient-5);}.cls-7{fill:url(#linear-gradient-6);}.cls-8{fill:url(#linear-gradient-7);}.cls-9{fill:url(#linear-gradient-8);}</style><linearGradient id="linear-gradient" x1="453.1" y1="396.66" x2="448.66" y2="666.66" gradientUnits="userSpaceOnUse"><stop offset="0" stop-color="#00716c"/><stop offset="0.13" stop-color="#097a6e"/><stop offset="0.35" stop-color="#239173"/><stop offset="0.49" stop-color="#36a277"/><stop offset="0.99" stop-color="#90d173"/></linearGradient><linearGradient id="linear-gradient-2" x1="581.1" y1="398.77" x2="576.66" y2="668.77" xlink:href="#linear-gradient"/><linearGradient id="linear-gradient-3" x1="720.71" y1="401.06" x2="716.26" y2="671.06" xlink:href="#linear-gradient"/><linearGradient id="linear-gradient-4" x1="810.86" y1="402.55" x2="806.42" y2="672.55" xlink:href="#linear-gradient"/><linearGradient id="linear-gradient-5" x1="446.1" y1="391.66" x2="441.66" y2="661.66" xlink:href="#linear-gradient"/><linearGradient id="linear-gradient-6" x1="574.1" y1="393.77" x2="569.66" y2="663.77" xlink:href="#linear-gradient"/><linearGradient id="linear-gradient-7" x1="713.71" y1="396.06" x2="709.26" y2="666.06" xlink:href="#linear-gradient"/><linearGradient id="linear-gradient-8" x1="803.86" y1="397.55" x2="799.42" y2="667.55" xlink:href="#linear-gradient"/></defs><title>logo</title><path class="cls-1" d="M477.09,549q0-4.23-5.92-9.21a143.21,143.21,0,0,0-14.66-10.58q-8.75-5.61-19-12.28a162.55,162.55,0,0,1-19-14.39,85,85,0,0,1-14.66-16.62A34.07,34.07,0,0,1,398,466.65q0-19,10.36-33.55A88.29,88.29,0,0,1,435,408.76,133.07,133.07,0,0,1,471,393.83a155.13,155.13,0,0,1,38.61-5.08,64.71,64.71,0,0,1,25.56,4.92,63.18,63.18,0,0,1,19.64,12.8,57.05,57.05,0,0,1,12.51,17.91,49.58,49.58,0,0,1,4.44,20.19,46.08,46.08,0,0,1-3.9,18.93,50.21,50.21,0,0,1-10.36,15.22,48.68,48.68,0,0,1-14.8,10.15,41.38,41.38,0,0,1-17,3.7,35.28,35.28,0,0,1-10.63-1.48,45.44,45.44,0,0,1-8.2-3.38l-2.69-1.41c-2.52-1.9-3-4.37-1-5.5l3.86-2.82a73.24,73.24,0,0,0,12.11-11.63,77.2,77.2,0,0,0,11.16-17.86,55,55,0,0,0,4.85-23.37,45.65,45.65,0,0,0-.54-7.19,14.6,14.6,0,0,0-2.15-5.81,11.45,11.45,0,0,0-4.71-3.92,19.32,19.32,0,0,0-8.21-1.48q-7.26,0-18.43,4.87a97.6,97.6,0,0,0-21.79,13.32,89.94,89.94,0,0,0-18.3,19.66,41.92,41.92,0,0,0-7.66,24.11,19.9,19.9,0,0,0,4.17,12.16,71.05,71.05,0,0,0,10.49,11.1q6.32,5.51,13.59,11a137.38,137.38,0,0,1,13.58,11.74,64.22,64.22,0,0,1,10.5,13.43A31.12,31.12,0,0,1,509.92,544a41.78,41.78,0,0,1-6.6,22.31,63.39,63.39,0,0,1-18.69,18.93q-12.12,8.23-29.47,13.21t-39.14,5a161.23,161.23,0,0,1-33.5-3.28,103.37,103.37,0,0,1-26.9-9.3,52.92,52.92,0,0,1-18-14.8A32.43,32.43,0,0,1,331,556q0-13.53,6.19-21.15a37.06,37.06,0,0,1,14-11,34.8,34.8,0,0,1,14.93-3.17l4.75.14c2.35,1.2,2.69,5.67.76,9.94v4.51a25.08,25.08,0,0,0,5.25,15.43,44.15,44.15,0,0,0,13.86,11.84,77.38,77.38,0,0,0,19.77,7.61,95.48,95.48,0,0,0,23,2.75,74,74,0,0,0,20-2.33A45.85,45.85,0,0,0,467,564.67a24.55,24.55,0,0,0,7.67-7.83A16.06,16.06,0,0,0,477.09,549Z" transform="translate(-306 -363.75)"/><path class="cls-2" d="M477.09,549q0-4.23-5.92-9.21a143.21,143.21,0,0,0-14.66-10.58q-8.75-5.61-19-12.28a162.55,162.55,0,0,1-19-14.39,85,85,0,0,1-14.66-16.62A34.07,34.07,0,0,1,398,466.65q0-19,10.36-33.55A88.29,88.29,0,0,1,435,408.76,133.07,133.07,0,0,1,471,393.83a155.13,155.13,0,0,1,38.61-5.08,64.71,64.71,0,0,1,25.56,4.92,63.18,63.18,0,0,1,19.64,12.8,57.05,57.05,0,0,1,12.51,17.91,49.58,49.58,0,0,1,4.44,20.19,46.08,46.08,0,0,1-3.9,18.93,50.21,50.21,0,0,1-10.36,15.22,48.68,48.68,0,0,1-14.8,10.15,41.38,41.38,0,0,1-17,3.7,35.28,35.28,0,0,1-10.63-1.48,45.44,45.44,0,0,1-8.2-3.38l-2.69-1.41c-2.52-1.9-3-4.37-1-5.5l3.86-2.82a73.24,73.24,0,0,0,12.11-11.63,77.2,77.2,0,0,0,11.16-17.86,55,55,0,0,0,4.85-23.37,45.65,45.65,0,0,0-.54-7.19,14.6,14.6,0,0,0-2.15-5.81,11.45,11.45,0,0,0-4.71-3.92,19.32,19.32,0,0,0-8.21-1.48q-7.26,0-18.43,4.87a97.6,97.6,0,0,0-21.79,13.32,89.94,89.94,0,0,0-18.3,19.66,41.92,41.92,0,0,0-7.66,24.11,19.9,19.9,0,0,0,4.17,12.16,71.05,71.05,0,0,0,10.49,11.1q6.32,5.51,13.59,11a137.38,137.38,0,0,1,13.58,11.74,64.22,64.22,0,0,1,10.5,13.43A31.12,31.12,0,0,1,509.92,544a41.78,41.78,0,0,1-6.6,22.31,63.39,63.39,0,0,1-18.69,18.93q-12.12,8.23-29.47,13.21t-39.14,5a161.23,161.23,0,0,1-33.5-3.28,103.37,103.37,0,0,1-26.9-9.3,52.92,52.92,0,0,1-18-14.8A32.43,32.43,0,0,1,331,556q0-13.53,6.19-21.15a37.06,37.06,0,0,1,14-11,34.8,34.8,0,0,1,14.93-3.17l4.75.14c2.35,1.2,2.69,5.67.76,9.94v4.51a25.08,25.08,0,0,0,5.25,15.43,44.15,44.15,0,0,0,13.86,11.84,77.38,77.38,0,0,0,19.77,7.61,95.48,95.48,0,0,0,23,2.75,74,74,0,0,0,20-2.33A45.85,45.85,0,0,0,467,564.67a24.55,24.55,0,0,0,7.67-7.83A16.06,16.06,0,0,0,477.09,549Z" transform="translate(-306 -363.75)"/><path class="cls-3" d="M638.25,471.43q6.46,0,10.22,2.64a16.63,16.63,0,0,1,5.65,6.66,23.77,23.77,0,0,1,2.16,8.88l.17,3.25c-.24,3.33-2.44,15.41-4.88,26.85l-5.11,9.87A116,116,0,0,1,628,555.8a92.88,92.88,0,0,1-23.54,18.29Q591.7,581,579.87,581q-10.77,0-16.15-5.29l-3.59-3.52c-2-4.92-3.69-9.08-3.72-9.23l-.09-.15-.09-.14a6.64,6.64,0,0,1,0-.7c0-.23-.06-.43-.13-.43s-.14-.38-.14-.84-.12-2.37-.27-4.23.31-7.21.36-8.28l.18-.92.18-.91c.2-1.07.36-2,.36-2.05s-1.56,3.18-3.46,7.19l-.44,4.44-.45,4.44c0,3.9-3.33,15.68-7.44,26.19l-2.61,8.59q-3.89,12.9-3.9,21.78a20.12,20.12,0,0,0,.94,6.77,12.5,12.5,0,0,0,2.29,4q1.62,2.32-.54,3.59a28.92,28.92,0,0,1-5.65,2.43,30.59,30.59,0,0,1-18.43-.52,23.76,23.76,0,0,1-14.12-13.54,30,30,0,0,1-2.15-11.84q0-9.94,5.78-24.21a238.49,238.49,0,0,1,14.8-29.81q9-15.54,19.77-30.87T562,495.32a250.13,250.13,0,0,1,17.9-19.87q7.8-7.62,10.76-7.62,7.26,0,7.26,5.71,0,.85-2.55,6.13l-1.71,3.53c-3,5.74-.9,6.94,4.62,2.68l5.56-3.25a102.48,102.48,0,0,1,16-7.71A50.57,50.57,0,0,1,638.25,471.43Zm-49.77,72.74a22.18,22.18,0,0,0,12.1-4A59.06,59.06,0,0,0,612.29,530,81.84,81.84,0,0,0,622,516.78a57.65,57.65,0,0,0,5.92-13.21q1.75-6.13.14-10.15t-7.27-4a18.37,18.37,0,0,0-7.8,1.9,42.22,42.22,0,0,0-8.07,5.08,60.39,60.39,0,0,0-7.8,7.4l-2.52,2.82c-2.46,3.22-5.23,6.9-6.14,8.17L587.8,516l-.63,1.27c-.91,1.4-3.09,5.3-4.84,8.67l-1,3a22.29,22.29,0,0,0-1.35,7.83,7.76,7.76,0,0,0,2.15,5.39Q584.17,544.17,588.48,544.17Z" transform="translate(-306 -363.75)"/><path class="cls-2" d="M638.25,471.43q6.46,0,10.22,2.64a16.63,16.63,0,0,1,5.65,6.66,23.77,23.77,0,0,1,2.16,8.88l.17,3.25c-.24,3.33-2.44,15.41-4.88,26.85l-5.11,9.87A116,116,0,0,1,628,555.8a92.88,92.88,0,0,1-23.54,18.29Q591.7,581,579.87,581q-10.77,0-16.15-5.29l-3.59-3.52c-2-4.92-3.69-9.08-3.72-9.23l-.09-.15-.09-.14a6.64,6.64,0,0,1,0-.7c0-.23-.06-.43-.13-.43s-.14-.38-.14-.84-.12-2.37-.27-4.23.31-7.21.36-8.28l.18-.92.18-.91c.2-1.07.36-2,.36-2.05s-1.56,3.18-3.46,7.19l-.44,4.44-.45,4.44c0,3.9-3.33,15.68-7.44,26.19l-2.61,8.59q-3.89,12.9-3.9,21.78a20.12,20.12,0,0,0,.94,6.77,12.5,12.5,0,0,0,2.29,4q1.62,2.32-.54,3.59a28.92,28.92,0,0,1-5.65,2.43,30.59,30.59,0,0,1-18.43-.52,23.76,23.76,0,0,1-14.12-13.54,30,30,0,0,1-2.15-11.84q0-9.94,5.78-24.21a238.49,238.49,0,0,1,14.8-29.81q9-15.54,19.77-30.87T562,495.32a250.13,250.13,0,0,1,17.9-19.87q7.8-7.62,10.76-7.62,7.26,0,7.26,5.71,0,.85-2.55,6.13l-1.71,3.53c-3,5.74-.9,6.94,4.62,2.68l5.56-3.25a102.48,102.48,0,0,1,16-7.71A50.57,50.57,0,0,1,638.25,471.43Zm-49.77,72.74a22.18,22.18,0,0,0,12.1-4A59.06,59.06,0,0,0,612.29,530,81.84,81.84,0,0,0,622,516.78a57.65,57.65,0,0,0,5.92-13.21q1.75-6.13.14-10.15t-7.27-4a18.37,18.37,0,0,0-7.8,1.9,42.22,42.22,0,0,0-8.07,5.08,60.39,60.39,0,0,0-7.8,7.4l-2.52,2.82c-2.46,3.22-5.23,6.9-6.14,8.17L587.8,516l-.63,1.27c-.91,1.4-3.09,5.3-4.84,8.67l-1,3a22.29,22.29,0,0,0-1.35,7.83,7.76,7.76,0,0,0,2.15,5.39Q584.17,544.17,588.48,544.17Z" transform="translate(-306 -363.75)"/><path class="cls-4" d="M755.82,529.93c9.47-11.13,18.39-21.58,19.82-23.22l1.44-.5a5,5,0,0,1,3.63-.1,3.59,3.59,0,0,1,2,2.43l.35,1.2a107.74,107.74,0,0,1-5.78,11l-2.78,4.79q-4.17,7.19-9.42,14.8A127.54,127.54,0,0,1,753,555.27a85.9,85.9,0,0,1-15.61,13,80.68,80.68,0,0,1-19.64,9.2A79.78,79.78,0,0,1,693.4,581a45,45,0,0,1-15.2-2.54,42.45,42.45,0,0,1-12.51-6.87,32.32,32.32,0,0,1-8.48-10.26,27.1,27.1,0,0,1-3.09-12.68q0-12.48,7-26.12a99.33,99.33,0,0,1,18.29-24.95,103.9,103.9,0,0,1,25.43-18.71,60.64,60.64,0,0,1,28.38-7.4q7,0,11,1.9a16.74,16.74,0,0,1,6.06,4.44,11.11,11.11,0,0,1,2.42,5.29,31.71,31.71,0,0,1,.4,4.44q0,6.35-3.76,14.17a64.83,64.83,0,0,1-9.83,14.69,61.19,61.19,0,0,1-13.45,11.52,27.74,27.74,0,0,1-14.93,4.66,27.08,27.08,0,0,1-8.61-1.27l-2.51-.85c-2.32-1.28-4.36-1.56-4.53-.63l-.09.84a22.23,22.23,0,0,0-.13,2.33q0,7.6,7.39,11.42t18.84,1.9q11.43-1.9,25.15-10.57ZM732.68,487.5q-1.6,0-5,2a53.7,53.7,0,0,0-7.4,5.49c-2.69,2.33-5.48,5-8.34,7.93l-2.87,3c-2.72,3.49-4.33,6.46-3.59,6.6l.54.06a13,13,0,0,0,1.88.11q5.39,0,11-3.91a53.39,53.39,0,0,0,9.82-8.67,29.59,29.59,0,0,0,5.65-8.67Q735.92,487.5,732.68,487.5Z" transform="translate(-306 -363.75)"/><path class="cls-2" d="M755.82,529.93c9.47-11.13,18.39-21.58,19.82-23.22l1.44-.5a5,5,0,0,1,3.63-.1,3.59,3.59,0,0,1,2,2.43l.35,1.2a107.74,107.74,0,0,1-5.78,11l-2.78,4.79q-4.17,7.19-9.42,14.8A127.54,127.54,0,0,1,753,555.27a85.9,85.9,0,0,1-15.61,13,80.68,80.68,0,0,1-19.64,9.2A79.78,79.78,0,0,1,693.4,581a45,45,0,0,1-15.2-2.54,42.45,42.45,0,0,1-12.51-6.87,32.32,32.32,0,0,1-8.48-10.26,27.1,27.1,0,0,1-3.09-12.68q0-12.48,7-26.12a99.33,99.33,0,0,1,18.29-24.95,103.9,103.9,0,0,1,25.43-18.71,60.64,60.64,0,0,1,28.38-7.4q7,0,11,1.9a16.74,16.74,0,0,1,6.06,4.44,11.11,11.11,0,0,1,2.42,5.29,31.71,31.71,0,0,1,.4,4.44q0,6.35-3.76,14.17a64.83,64.83,0,0,1-9.83,14.69,61.19,61.19,0,0,1-13.45,11.52,27.74,27.74,0,0,1-14.93,4.66,27.08,27.08,0,0,1-8.61-1.27l-2.51-.85c-2.32-1.28-4.36-1.56-4.53-.63l-.09.84a22.23,22.23,0,0,0-.13,2.33q0,7.6,7.39,11.42t18.84,1.9q11.43-1.9,25.15-10.57ZM732.68,487.5q-1.6,0-5,2a53.7,53.7,0,0,0-7.4,5.49c-2.69,2.33-5.48,5-8.34,7.93l-2.87,3c-2.72,3.49-4.33,6.46-3.59,6.6l.54.06a13,13,0,0,0,1.88.11q5.39,0,11-3.91a53.39,53.39,0,0,0,9.82-8.67,29.59,29.59,0,0,0,5.65-8.67Q735.92,487.5,732.68,487.5Z" transform="translate(-306 -363.75)"/><path class="cls-5" d="M834.61,528.91c7.87-10.57,15.47-20.56,16.9-22.2l1.44-.5a5.35,5.35,0,0,1,3.77-.1,3.54,3.54,0,0,1,2.15,2.43l.36,1.2c-.79,1.72-3.48,6.68-6,11l-2.6,4.79q-3.9,7.19-8.47,14.8t-9.82,14.91a85.88,85.88,0,0,1-11.44,13,57,57,0,0,1-13.18,9.2A33.41,33.41,0,0,1,792.68,581a42.62,42.62,0,0,1-13.59-2.12,35.61,35.61,0,0,1-10.89-5.71,27.85,27.85,0,0,1-7.27-8.45,21.53,21.53,0,0,1-2.69-10.58q0-9.93,5.65-24.31a253.43,253.43,0,0,1,14.4-30.13q8.73-15.75,19.23-31.4t20.18-28.13a226.25,226.25,0,0,1,17.36-20.19q7.66-7.71,10.62-7.72,7.27,0,7.27,5.71,0,.85-3.63,8.67t-9,19.35L828.6,471q-6.33,13.54-11.7,26.12t-9,22.52q-3.63,9.95-3.63,14,0,6.13,3.09,8a12.85,12.85,0,0,0,6.87,1.9q8.07,0,15.47-8.77Z" transform="translate(-306 -363.75)"/><path class="cls-2" d="M834.61,528.91c7.87-10.57,15.47-20.56,16.9-22.2l1.44-.5a5.35,5.35,0,0,1,3.77-.1,3.54,3.54,0,0,1,2.15,2.43l.36,1.2c-.79,1.72-3.48,6.68-6,11l-2.6,4.79q-3.9,7.19-8.47,14.8t-9.82,14.91a85.88,85.88,0,0,1-11.44,13,57,57,0,0,1-13.18,9.2A33.41,33.41,0,0,1,792.68,581a42.62,42.62,0,0,1-13.59-2.12,35.61,35.61,0,0,1-10.89-5.71,27.85,27.85,0,0,1-7.27-8.45,21.53,21.53,0,0,1-2.69-10.58q0-9.93,5.65-24.31a253.43,253.43,0,0,1,14.4-30.13q8.73-15.75,19.23-31.4t20.18-28.13a226.25,226.25,0,0,1,17.36-20.19q7.66-7.71,10.62-7.72,7.27,0,7.27,5.71,0,.85-3.63,8.67t-9,19.35L828.6,471q-6.33,13.54-11.7,26.12t-9,22.52q-3.63,9.95-3.63,14,0,6.13,3.09,8a12.85,12.85,0,0,0,6.87,1.9q8.07,0,15.47-8.77Z" transform="translate(-306 -363.75)"/><path class="cls-6" d="M470.09,544q0-4.23-5.92-9.21a143.21,143.21,0,0,0-14.66-10.58q-8.75-5.61-19-12.28a162.55,162.55,0,0,1-19-14.39,85,85,0,0,1-14.66-16.62A34.07,34.07,0,0,1,391,461.65q0-19,10.36-33.55A88.29,88.29,0,0,1,428,403.76,133.07,133.07,0,0,1,464,388.83a155.13,155.13,0,0,1,38.61-5.08,64.71,64.71,0,0,1,25.56,4.92,63.18,63.18,0,0,1,19.64,12.8,57.05,57.05,0,0,1,12.51,17.91,49.58,49.58,0,0,1,4.44,20.19,46.08,46.08,0,0,1-3.9,18.93,50.21,50.21,0,0,1-10.36,15.22,48.68,48.68,0,0,1-14.8,10.15,41.38,41.38,0,0,1-17,3.7,35.28,35.28,0,0,1-10.63-1.48,45.44,45.44,0,0,1-8.2-3.38l-2.69-1.41c-2.52-1.9-3-4.37-1-5.5l3.86-2.82a73.24,73.24,0,0,0,12.11-11.63,77.2,77.2,0,0,0,11.16-17.86,55,55,0,0,0,4.85-23.37,45.65,45.65,0,0,0-.54-7.19,14.6,14.6,0,0,0-2.15-5.81,11.45,11.45,0,0,0-4.71-3.92,19.32,19.32,0,0,0-8.21-1.48q-7.26,0-18.43,4.87a97.6,97.6,0,0,0-21.79,13.32,89.94,89.94,0,0,0-18.3,19.66,41.92,41.92,0,0,0-7.66,24.11,19.9,19.9,0,0,0,4.17,12.16,71.05,71.05,0,0,0,10.49,11.1q6.32,5.51,13.59,11a137.38,137.38,0,0,1,13.58,11.74,64.22,64.22,0,0,1,10.5,13.43A31.12,31.12,0,0,1,502.92,539a41.78,41.78,0,0,1-6.6,22.31,63.39,63.39,0,0,1-18.69,18.93q-12.12,8.23-29.47,13.21t-39.14,5a161.23,161.23,0,0,1-33.5-3.28,103.37,103.37,0,0,1-26.9-9.3,52.92,52.92,0,0,1-18-14.8A32.43,32.43,0,0,1,324,551q0-13.53,6.19-21.15a37.06,37.06,0,0,1,14-11,34.8,34.8,0,0,1,14.93-3.17l4.75.14c2.35,1.2,2.69,5.67.76,9.94v4.51a25.08,25.08,0,0,0,5.25,15.43,44.15,44.15,0,0,0,13.86,11.84,77.38,77.38,0,0,0,19.77,7.61,95.48,95.48,0,0,0,23,2.75,74,74,0,0,0,20-2.33A45.85,45.85,0,0,0,460,559.67a24.55,24.55,0,0,0,7.67-7.83A16.06,16.06,0,0,0,470.09,544Z" transform="translate(-306 -363.75)"/><path class="cls-7" d="M631.25,466.43q6.46,0,10.22,2.64a16.63,16.63,0,0,1,5.65,6.66,23.77,23.77,0,0,1,2.16,8.88l.17,3.25c-.24,3.33-2.44,15.41-4.88,26.85l-5.11,9.87A116,116,0,0,1,621,550.8a92.88,92.88,0,0,1-23.54,18.29Q584.7,576,572.87,576q-10.77,0-16.15-5.29l-3.59-3.52c-2-4.92-3.69-9.08-3.72-9.23l-.09-.15-.09-.14a6.64,6.64,0,0,1,0-.7c0-.23-.06-.43-.13-.43s-.14-.38-.14-.84-.12-2.37-.27-4.23.31-7.21.36-8.28l.18-.92.18-.91c.2-1.07.36-2,.36-2.05s-1.56,3.18-3.46,7.19l-.44,4.44-.45,4.44c0,3.9-3.33,15.68-7.44,26.19l-2.61,8.59q-3.89,12.9-3.9,21.78a20.12,20.12,0,0,0,.94,6.77,12.5,12.5,0,0,0,2.29,4q1.62,2.32-.54,3.59a28.92,28.92,0,0,1-5.65,2.43,30.59,30.59,0,0,1-18.43-.52,23.76,23.76,0,0,1-14.12-13.54,30,30,0,0,1-2.15-11.84q0-9.94,5.78-24.21a238.49,238.49,0,0,1,14.8-29.81q9-15.54,19.77-30.87T555,490.32a250.13,250.13,0,0,1,17.9-19.87q7.8-7.62,10.76-7.62,7.26,0,7.26,5.71,0,.85-2.55,6.13l-1.71,3.53c-3,5.74-.9,6.94,4.62,2.68l5.56-3.25a102.48,102.48,0,0,1,16-7.71A50.57,50.57,0,0,1,631.25,466.43Zm-49.77,72.74a22.18,22.18,0,0,0,12.1-4A59.06,59.06,0,0,0,605.29,525,81.84,81.84,0,0,0,615,511.78a57.65,57.65,0,0,0,5.92-13.21q1.75-6.13.14-10.15t-7.27-4a18.37,18.37,0,0,0-7.8,1.9,42.22,42.22,0,0,0-8.07,5.08,60.39,60.39,0,0,0-7.8,7.4l-2.52,2.82c-2.46,3.22-5.23,6.9-6.14,8.17L580.8,511l-.63,1.27c-.91,1.4-3.09,5.3-4.84,8.67l-1,3a22.29,22.29,0,0,0-1.35,7.83,7.76,7.76,0,0,0,2.15,5.39Q577.17,539.17,581.48,539.17Z" transform="translate(-306 -363.75)"/><path class="cls-8" d="M748.82,524.93c9.47-11.13,18.39-21.58,19.82-23.22l1.44-.5a5,5,0,0,1,3.63-.1,3.59,3.59,0,0,1,2,2.43l.35,1.2a107.74,107.74,0,0,1-5.78,11l-2.78,4.79q-4.17,7.19-9.42,14.8A127.54,127.54,0,0,1,746,550.27a85.9,85.9,0,0,1-15.61,13,80.68,80.68,0,0,1-19.64,9.2A79.78,79.78,0,0,1,686.4,576a45,45,0,0,1-15.2-2.54,42.45,42.45,0,0,1-12.51-6.87,32.32,32.32,0,0,1-8.48-10.26,27.1,27.1,0,0,1-3.09-12.68q0-12.48,7-26.12a99.33,99.33,0,0,1,18.29-24.95,103.9,103.9,0,0,1,25.43-18.71,60.64,60.64,0,0,1,28.38-7.4q7,0,11,1.9a16.74,16.74,0,0,1,6.06,4.44,11.11,11.11,0,0,1,2.42,5.29,31.71,31.71,0,0,1,.4,4.44q0,6.35-3.76,14.17a64.83,64.83,0,0,1-9.83,14.69,61.19,61.19,0,0,1-13.45,11.52,27.74,27.74,0,0,1-14.93,4.66,27.08,27.08,0,0,1-8.61-1.27l-2.51-.85c-2.32-1.28-4.36-1.56-4.53-.63l-.09.84a22.23,22.23,0,0,0-.13,2.33q0,7.6,7.39,11.42t18.84,1.9q11.43-1.9,25.15-10.57ZM725.68,482.5q-1.6,0-5,2a53.7,53.7,0,0,0-7.4,5.49c-2.69,2.33-5.48,5-8.34,7.93l-2.87,3c-2.72,3.49-4.33,6.46-3.59,6.6l.54.06a13,13,0,0,0,1.88.11q5.39,0,11-3.91a53.39,53.39,0,0,0,9.82-8.67,29.59,29.59,0,0,0,5.65-8.67Q728.92,482.5,725.68,482.5Z" transform="translate(-306 -363.75)"/><path class="cls-9" d="M827.61,523.91c7.87-10.57,15.47-20.56,16.9-22.2l1.44-.5a5.35,5.35,0,0,1,3.77-.1,3.54,3.54,0,0,1,2.15,2.43l.36,1.2c-.79,1.72-3.48,6.68-6,11l-2.6,4.79q-3.9,7.19-8.47,14.8t-9.82,14.91a85.88,85.88,0,0,1-11.44,13,57,57,0,0,1-13.18,9.2A33.41,33.41,0,0,1,785.68,576a42.62,42.62,0,0,1-13.59-2.12,35.61,35.61,0,0,1-10.89-5.71,27.85,27.85,0,0,1-7.27-8.45,21.53,21.53,0,0,1-2.69-10.58q0-9.93,5.65-24.31a253.43,253.43,0,0,1,14.4-30.13q8.73-15.75,19.23-31.4t20.18-28.13a226.25,226.25,0,0,1,17.36-20.19q7.66-7.71,10.62-7.72,7.27,0,7.27,5.71,0,.85-3.63,8.67t-9,19.35L821.6,466q-6.33,13.54-11.7,26.12t-9,22.52q-3.63,9.95-3.63,14,0,6.13,3.09,8a12.85,12.85,0,0,0,6.87,1.9q8.07,0,15.47-8.77Z" transform="translate(-306 -363.75)"/></svg>